<svg xmlns="http://www.w3.org/2000/svg" version="1.1" xmlns:xlink="http://www.w3.org/1999/xlink" xmlns:svgjs="http://svgjs.dev/svgjs" width="1500" height="344" viewBox="0 0 1500 344"><g transform="matrix(1,0,0,1,-0.7421388101981847,-0.21234567901240098)"><svg viewBox="0 0 353 81" data-background-color="#ffffff" preserveAspectRatio="xMidYMid meet" height="344" width="1500" xmlns="http://www.w3.org/2000/svg" xmlns:xlink="http://www.w3.org/1999/xlink"><g id="tight-bounds" transform="matrix(1,0,0,1,0.17464999999998554,0.05000000000001137)"><svg viewBox="0 0 352.65070000000003 80.89999999999999" height="80.89999999999999" width="352.65070000000003"><g><svg viewBox="0 0 352.65070000000003 80.89999999999999" height="80.89999999999999" width="352.65070000000003"><g><svg viewBox="0 0 352.65070000000003 80.89999999999999" height="80.89999999999999" width="352.65070000000003"><g id="textblocktransform"><svg viewBox="0 0 352.65070000000003 80.89999999999999" height="80.89999999999999" width="352.65070000000003" id="textblock"><g><svg viewBox="0 0 352.65070000000003 80.89999999999999" height="80.89999999999999" width="352.65070000000003"><g><svg><g></g><g></g></svg></g><g><svg><g></g><g><svg></svg></g></svg></g><g id="text-0"><svg viewBox="0 0 352.65070000000003 80.89999999999999" height="80.89999999999999" width="352.65070000000003"><g><svg xmlns="http://www.w3.org/2000/svg" xmlns:xlink="http://www.w3.org/1999/xlink" version="1.1" x="0" y="0" viewBox="1 1 62 62" style="enable-background:new 0 0 64 64;" xml:space="preserve" height="80.89999999999999" width="80.89999999999999" class="icon-cg-0" data-fill-palette-color="accent" id="cg-0"><g fill="#0023ff" data-fill-palette-color="accent"><path d="M60.31 31.896c-1.177-1.177-2.652-2.012-4.267-2.416l-3.528-0.882C51.623 28.375 51 27.577 51 26.658V26v-0.264c0.991-0.693 1.79-1.636 2.315-2.736H54c2.206 0 4-1.794 4-4v-6h1c1.654 0 3-1.346 3-3s-1.346-3-3-3h-1.308c-1.512-3.617-5.048-6-9.017-6h-2.637c-4.616 0-8.541 3.147-9.543 7.654l-0.473 2.129L36.011 12H36v7c0 2.206 1.794 4 4 4h0.685c0.525 1.1 1.324 2.043 2.315 2.736V26v0.658c0 0.919-0.623 1.717-1.515 1.94l-3.528 0.882c-1.614 0.404-3.09 1.239-4.267 2.416-0.694 0.694-1.257 1.482-1.69 2.332-0.433-0.85-0.996-1.638-1.69-2.332-0.233-0.233-0.487-0.442-0.742-0.648 0.909-0.99 1.306-1.76 1.327-1.801l0.322-0.645-0.51-0.51C28.961 26.547 28 24.226 28 21.757V13h1c1.654 0 3-1.346 3-3s-1.346-3-3-3h-1.308c-1.512-3.617-5.048-6-9.017-6h-2.637c-4.616 0-8.541 3.147-9.543 7.654l-0.473 2.129L6.011 12H6v9.757c0 2.469-0.961 4.79-2.707 6.536l-0.51 0.509 0.322 0.645c0.021 0.041 0.418 0.811 1.327 1.801-0.255 0.206-0.509 0.415-0.742 0.648C1.955 33.63 1 35.937 1 38.39V53c0 2.206 1.794 4 4 4 0.732 0 1.409-0.212 2-0.556V63h20v-6.556C27.591 56.788 28.268 57 29 57c1.201 0 2.266-0.542 3-1.382C32.734 56.458 33.799 57 35 57c0.732 0 1.409-0.212 2-0.556V63h20v-6.556C57.591 56.788 58.268 57 59 57c2.206 0 4-1.794 4-4V38.39C63 35.937 62.045 33.63 60.31 31.896zM61 38.39V43h-4V31.968c0.696 0.345 1.341 0.788 1.896 1.342C60.253 34.667 61 36.471 61 38.39zM51 49v-2h4v2H51zM55 41h-4v-2h4V41zM51 43h4v2h-4V43zM55 37h-4v-2h4V37zM49 29c0 1.103-0.897 2-2 2s-2-0.897-2-2v-2.295C45.634 26.895 46.305 27 47 27s1.366-0.105 2-0.295V29zM43 45h-4v-2h4V45zM43 41h-4v-2h4V41zM43 37h-4v-2h4V37zM39 47h4v2h-4V47zM45 32.444C45.591 32.788 46.268 33 47 33s1.409-0.212 2-0.556V49h-4V32.444zM52.03 30.538L55 31.281V33h-4v-2.891C51.318 30.293 51.659 30.445 52.03 30.538zM54 21h-0.08c0.047-0.328 0.08-0.66 0.08-1v-3c1.103 0 2 0.897 2 2S55.103 21 54 21zM56 15.556C55.409 15.212 54.732 15 54 15v-2h2V15.556zM59 9c0.552 0 1 0.449 1 1s-0.448 1-1 1H44.618l0.724-1.447C45.513 9.212 45.855 9 46.236 9H59zM38.449 9.088C39.246 5.503 42.367 3 46.039 3h2.637c2.864 0 5.446 1.561 6.798 4h-9.237c-1.144 0-2.172 0.635-2.684 1.658L42.382 11h-4.357L38.449 9.088zM40 13v2c-0.732 0-1.409 0.212-2 0.556V13H40zM40 21c-1.103 0-2-0.897-2-2s0.897-2 2-2v3c0 0.34 0.033 0.672 0.08 1H40zM42 20v-7h10v7c0 2.757-2.243 5-5 5S42 22.757 42 20zM41.97 30.538c0.371-0.093 0.712-0.245 1.03-0.429V33h-4v-1.719L41.97 30.538zM35.104 33.31c0.554-0.554 1.2-0.997 1.896-1.342V43h-4v-4.61C33 36.471 33.747 34.667 35.104 33.31zM31 38.39V43h-4V31.968c0.696 0.345 1.341 0.788 1.896 1.342C30.253 34.667 31 36.471 31 38.39zM21 49v-2h4v2H21zM10.08 21H10c-1.103 0-2-0.897-2-2s0.897-2 2-2v3C10 20.34 10.033 20.672 10.08 21zM12 13h10v7c0 2.757-2.243 5-5 5s-5-2.243-5-5V13zM24 21h-0.08c0.047-0.328 0.08-0.66 0.08-1v-3c1.103 0 2 0.897 2 2S25.103 21 24 21zM25 41h-4v-2h4V41zM15 26.705C15.634 26.895 16.305 27 17 27s1.366-0.105 2-0.295V29c0 1.103-0.897 2-2 2s-2-0.897-2-2V26.705zM21 43h4v2h-4V43zM25 37h-4v-2h4V37zM25 33h-4v-2.891c0.318 0.184 0.659 0.337 1.03 0.429L25 31.281V33zM13 45H9v-2h4V45zM13 41H9v-2h4V41zM13 37H9v-2h4V37zM13 33H9v-1.719l2.97-0.743c0.371-0.093 0.712-0.245 1.03-0.429V33zM9 47h4v2H9V47zM15 32.444C15.591 32.788 16.268 33 17 33s1.409-0.212 2-0.556V49h-4V32.444zM28.741 29.115c-0.203 0.28-0.499 0.644-0.896 1.045-0.577-0.282-1.174-0.523-1.803-0.68l-3.528-0.882C21.623 28.375 21 27.577 21 26.658V26v-0.264c0.991-0.693 1.79-1.636 2.315-2.736H24c0.744 0 1.432-0.217 2.03-0.572C26.175 24.909 27.114 27.241 28.741 29.115zM26 15.556C25.409 15.212 24.732 15 24 15v-2h2V15.556zM29 9c0.552 0 1 0.449 1 1s-0.448 1-1 1H14.618l0.724-1.447C15.513 9.212 15.855 9 16.236 9H29zM8.449 9.088C9.246 5.503 12.367 3 16.039 3h2.637c2.864 0 5.446 1.561 6.798 4h-9.237c-1.144 0-2.172 0.635-2.684 1.658L12.382 11H8.024L8.449 9.088zM10 13v2c-0.732 0-1.409 0.212-2 0.556V13H10zM5.259 29.115c1.627-1.874 2.566-4.206 2.712-6.688C8.568 22.783 9.256 23 10 23h0.685c0.525 1.1 1.324 2.043 2.315 2.736V26v0.658c0 0.919-0.623 1.717-1.515 1.94L7.957 29.48c-0.628 0.157-1.226 0.398-1.802 0.68C5.758 29.759 5.462 29.395 5.259 29.115zM5.104 33.31c0.554-0.554 1.2-0.997 1.896-1.342V43H3v-4.61C3 36.471 3.747 34.667 5.104 33.31zM5 55c-1.103 0-2-0.897-2-2v-8h4v4 1 1 2C7 54.103 6.103 55 5 55zM25 61h-7v-2.838c0-1.46 0.931-2.752 2.316-3.213l-0.633-1.897c-1.112 0.371-2.037 1.078-2.684 1.985-0.646-0.907-1.572-1.615-2.684-1.985l-0.633 1.897C15.069 55.41 16 56.702 16 58.162V61H9v-8-2h6 4 6v2V61zM29 55c-1.103 0-2-0.897-2-2v-2-1-1-4h4v8C31 54.103 30.103 55 29 55zM35 55c-1.103 0-2-0.897-2-2v-8h4v4 1 1 2C37 54.103 36.103 55 35 55zM55 61h-7v-2.838c0-1.46 0.931-2.752 2.316-3.213l-0.633-1.897c-1.112 0.371-2.037 1.078-2.684 1.985-0.646-0.907-1.572-1.615-2.684-1.985l-0.633 1.897C45.069 55.41 46 56.702 46 58.162V61h-7v-8-2h6 4 6v2V61zM59 55c-1.103 0-2-0.897-2-2v-2-1-1-4h4v8C61 54.103 60.103 55 59 55z" fill="#0023ff" data-fill-palette-color="accent"></path><path d="M17 23c1.654 0 3-1.346 3-3h-2c0 0.551-0.448 1-1 1s-1-0.449-1-1h-2C14 21.654 15.346 23 17 23z" fill="#0023ff" data-fill-palette-color="accent"></path><circle cx="14" cy="16" r="1.0" fill="#0023ff" data-fill-palette-color="accent"></circle><circle cx="20" cy="16" r="1.0" fill="#0023ff" data-fill-palette-color="accent"></circle><path d="M47 23c1.654 0 3-1.346 3-3h-2c0 0.551-0.448 1-1 1s-1-0.449-1-1h-2C44 21.654 45.346 23 47 23z" fill="#0023ff" data-fill-palette-color="accent"></path><circle cx="44" cy="16" r="1.0" fill="#0023ff" data-fill-palette-color="accent"></circle><circle cx="50" cy="16" r="1.0" fill="#0023ff" data-fill-palette-color="accent"></circle></g></svg></g><g transform="matrix(1,0,0,1,100,0)"><svg width="252.6507" viewBox="3.15 -40.5 156.14 50" height="80.89999999999999" data-palette-color="#010c80"><path d="M13.95 0L3.15 0 3.15-40.5 12.45-40.5Q15.2-40.5 17.23-39.9 19.25-39.3 20.6-38.05 21.95-36.8 22.6-34.88 23.25-32.95 23.25-30.35L23.25-30.35Q23.25-27.85 22.63-26.03 22-24.2 20.73-23.15 19.45-22.1 17.45-21.8L17.45-21.8Q19.9-21.25 21.4-19.93 22.9-18.6 23.63-16.53 24.35-14.45 24.35-11.55L24.35-11.55Q24.35-8.95 23.75-6.8 23.15-4.65 21.88-3.15 20.6-1.65 18.63-0.83 16.65 0 13.95 0L13.95 0ZM8.8-19.3L8.8-4.05 12.6-4.05Q16.4-4.05 17.68-5.83 18.95-7.6 18.95-11.55L18.95-11.55Q18.95-14.1 18.28-15.83 17.6-17.55 16.13-18.43 14.65-19.3 12.15-19.3L12.15-19.3 8.8-19.3ZM8.8-36.3L8.8-23.6 12.15-23.6Q14.55-23.6 15.9-24.28 17.25-24.95 17.8-26.45 18.35-27.95 18.35-30.35L18.35-30.35Q18.35-33.15 17.5-34.4 16.65-35.65 14.85-35.98 13.05-36.3 10.15-36.3L10.15-36.3 8.8-36.3ZM33.05 0.4L33.05 0.4Q31.35 0.4 30.4-0.5 29.45-1.4 29.07-2.75 28.7-4.1 28.7-5.5L28.7-5.5 28.7-28.9 34.05-28.9 34.05-7.1Q34.05-5.55 34.5-4.67 34.95-3.8 36.35-3.8L36.35-3.8Q37.25-3.8 38.22-4.33 39.2-4.85 40.1-5.6L40.1-5.6 40.1-28.9 45.45-28.9 45.45 0 40.1 0 40.1-2.85Q38.7-1.5 36.92-0.55 35.15 0.4 33.05 0.4ZM57.6 0.4L57.6 0.4Q53.95 0.4 52.15-2.27 50.35-4.95 50.35-11.35L50.35-11.35 50.35-16.95Q50.35-20.25 50.9-23.08 51.45-25.9 52.97-27.6 54.5-29.3 57.45-29.3L57.45-29.3Q58.9-29.3 60.1-28.65 61.3-28 62.25-27.05L62.25-27.05 62.25-40.5 67.6-40.5 67.6 0 62.25 0 62.25-1.85Q61.3-0.85 60.17-0.23 59.05 0.4 57.6 0.4ZM58.95-3.8L58.95-3.8Q59.7-3.8 60.55-4.08 61.4-4.35 62.25-4.9L62.25-4.9 62.25-23.85Q61.55-24.35 60.7-24.73 59.85-25.1 58.85-25.1L58.85-25.1Q57-25.1 56.35-23.33 55.7-21.55 55.7-19.05L55.7-19.05 55.7-10.9Q55.7-8.9 55.92-7.28 56.15-5.65 56.85-4.73 57.55-3.8 58.95-3.8ZM79.69 0.4L79.69 0.4Q76.04 0.4 74.24-2.27 72.44-4.95 72.44-11.35L72.44-11.35 72.44-16.95Q72.44-20.25 72.99-23.08 73.54-25.9 75.07-27.6 76.59-29.3 79.54-29.3L79.54-29.3Q80.99-29.3 82.19-28.65 83.39-28 84.34-27.05L84.34-27.05 84.34-40.5 89.69-40.5 89.69 0 84.34 0 84.34-1.85Q83.39-0.85 82.27-0.23 81.14 0.4 79.69 0.4ZM81.04-3.8L81.04-3.8Q81.79-3.8 82.64-4.08 83.49-4.35 84.34-4.9L84.34-4.9 84.34-23.85Q83.64-24.35 82.79-24.73 81.94-25.1 80.94-25.1L80.94-25.1Q79.09-25.1 78.44-23.33 77.79-21.55 77.79-19.05L77.79-19.05 77.79-10.9Q77.79-8.9 78.02-7.28 78.24-5.65 78.94-4.73 79.64-3.8 81.04-3.8ZM95.29 7.25L94.64 7.25 94.64 3.15Q96.59 3.15 97.74 2.98 98.89 2.8 99.39 2.33 99.89 1.85 99.89 1L99.89 1Q99.89 0.55 99.54-1 99.19-2.55 98.79-4.3L98.79-4.3 92.99-28.9 98.39-28.9 102.29-7.3 106.04-28.9 111.44-28.9 104.54 1.6Q104.09 3.7 102.89 4.93 101.69 6.15 99.82 6.7 97.94 7.25 95.29 7.25L95.29 7.25ZM125.59 0.45L125.59 0.45Q121.19 0.45 118.84-1.3 116.49-3.05 115.64-6.23 114.79-9.4 114.79-13.65L114.79-13.65 114.79-40.5 120.19-40.5 120.19-13.4Q120.19-10.8 120.54-8.65 120.89-6.5 122.06-5.25 123.24-4 125.59-4L125.59-4Q127.99-4 129.14-5.25 130.29-6.5 130.64-8.65 130.99-10.8 130.99-13.4L130.99-13.4 130.99-40.5 136.34-40.5 136.34-13.65Q136.34-9.4 135.49-6.23 134.64-3.05 132.31-1.3 129.99 0.45 125.59 0.45ZM147.19 9.5L141.84 9.5 141.84-28.9 147.19-28.9 147.19-26.6Q148.14-27.7 149.49-28.5 150.84-29.3 152.69-29.3L152.69-29.3Q154.94-29.3 156.26-28.13 157.59-26.95 158.24-25.18 158.89-23.4 159.09-21.58 159.29-19.75 159.29-18.45L159.29-18.45 159.29-11.45Q159.29-8.4 158.69-5.68 158.09-2.95 156.51-1.28 154.94 0.4 152.09 0.4L152.09 0.4Q150.54 0.4 149.34-0.38 148.14-1.15 147.19-2.15L147.19-2.15 147.19 9.5ZM151.04-3.8L151.04-3.8Q152.44-3.8 153.04-4.83 153.64-5.85 153.79-7.6 153.94-9.35 153.94-11.45L153.94-11.45 153.94-18.45Q153.94-20.25 153.74-21.78 153.54-23.3 152.89-24.2 152.24-25.1 150.84-25.1L150.84-25.1Q149.79-25.1 148.84-24.65 147.89-24.2 147.19-23.6L147.19-23.6 147.19-5.1Q147.94-4.55 148.89-4.17 149.84-3.8 151.04-3.8Z" opacity="1" transform="matrix(1,0,0,1,0,0)" fill="#010c80" class="wordmark-text-0" data-fill-palette-color="primary"></path></svg></g></svg></g></svg></g></svg></g></svg></g></svg></g><defs></defs></svg><rect width="352.65070000000003" height="80.89999999999999" fill="none" stroke="none" visibility="hidden"></rect></g></svg></g></svg>